<svg id="Layer_1" data-name="Layer 1" xmlns="http://www.w3.org/2000/svg" viewBox="0 0 122.88 105.55"><title>office-building</title><path d="M36.24,102.43H86.43l0-99.31H36.24v99.31Zm53.52,0H120V33.75H89.77v68.68Zm-56.88,0V33.75h-30v68.68ZM1.44,105.55A1.44,1.44,0,0,1,0,104.11V32.74a2.15,2.15,0,0,1,.62-1.5,2.12,2.12,0,0,1,1.5-.62h31V2.53A2.54,2.54,0,0,1,35.65,0H87a2.53,2.53,0,0,1,2.53,2.53V30.62h31.23a2.11,2.11,0,0,1,1.49.62h0a2.11,2.11,0,0,1,.62,1.49v71.37a1.44,1.44,0,0,1-1.44,1.44ZM71.67,81.18h8.49a.24.24,0,0,1,.24.24v8.49a.24.24,0,0,1-.24.24H71.67a.24.24,0,0,1-.24-.24V81.42a.24.24,0,0,1,.24-.24Zm-14.59,0h8.49a.24.24,0,0,1,.24.24v8.49a.24.24,0,0,1-.24.24H57.08a.24.24,0,0,1-.24-.24V81.42a.24.24,0,0,1,.24-.24Zm-14.59,0H51a.24.24,0,0,1,.24.24v8.49a.24.24,0,0,1-.24.24H42.49a.24.24,0,0,1-.24-.24V81.42a.24.24,0,0,1,.24-.24Zm54.66-8.26H113.3v5.83l-16.15.18v-6Zm-87.44,0H25.62v5.83l-15.91.18v-6ZM42.46,8.47H80.2a1.16,1.16,0,0,1,1.15,1.15V39.14A1.16,1.16,0,0,1,80.2,40.3H42.46a1.16,1.16,0,0,1-1.16-1.16V9.62a1.16,1.16,0,0,1,1.16-1.15ZM97.15,61.69H113.3v5.83l-16.15.17v-6ZM113.3,50.45v5.83l-16.39.18V50.62c0-.36,14.92-.17,16.39-.17ZM9.71,61.69H25.86v5.83l-16.15.17v-6Zm0-11.24H25.86v5.83l-16.15.18v-6Zm62,15.84h8.49a.24.24,0,0,1,.24.24V75a.24.24,0,0,1-.24.24H71.67a.24.24,0,0,1-.24-.24V66.53a.24.24,0,0,1,.24-.24Zm-14.59,0h8.49a.24.24,0,0,1,.24.24V75a.24.24,0,0,1-.24.24H57.08a.24.24,0,0,1-.24-.24V66.53a.24.24,0,0,1,.24-.24Zm-14.59,0H51a.24.24,0,0,1,.24.24V75a.24.24,0,0,1-.24.24H42.49a.24.24,0,0,1-.24-.24V66.53a.24.24,0,0,1,.24-.24ZM71.67,49.81h8.49a.24.24,0,0,1,.24.24v8.49a.24.24,0,0,1-.24.24H71.67a.24.24,0,0,1-.24-.24V50.05a.24.24,0,0,1,.24-.24Zm-14.59,0h8.49a.24.24,0,0,1,.24.24v8.49a.24.24,0,0,1-.24.24H57.08a.24.24,0,0,1-.24-.24V50.05a.24.24,0,0,1,.24-.24Zm-14.59,0H51a.24.24,0,0,1,.24.24v8.49a.24.24,0,0,1-.24.24H42.49a.24.24,0,0,1-.24-.24V50.05a.24.24,0,0,1,.24-.24Z"/></svg>