<svg id="Layer_1" data-name="Layer 1" xmlns="http://www.w3.org/2000/svg" viewBox="0 0 122.88 95.51"><defs><style>.cls-1{fill-rule:evenodd;}</style></defs><title>website</title><path class="cls-1" d="M12.6,26.42h96.77V70.15H12.6V26.42ZM25.85,56.24l-4.06-17h6.3L29.82,50.6l2.7-11.33h5L40.21,50.6l1.38-11.33h6.3l-4,17H37.18L34.89,48l-2.43,8.22Zm26.6,0-4.06-17h6.3L56.42,50.6l2.71-11.33h5L66.81,50.6l1.38-11.33h6.3l-4,17H63.79L61.49,48l-2.43,8.22Zm26.6,0L75,39.27h6.3L83,50.6l2.71-11.33h5L93.41,50.6l1.38-11.33h6.3l-4,17H90.39L88.09,48l-2.43,8.22ZM8.32,0H114.56a8.34,8.34,0,0,1,8.32,8.32V87.19a8.35,8.35,0,0,1-8.32,8.32H8.32A8.34,8.34,0,0,1,0,87.19V8.32A8.34,8.34,0,0,1,8.32,0ZM118,20.1H5.29V88a2.29,2.29,0,0,0,2.3,2.3h108a2.29,2.29,0,0,0,2.3-2.3V20.1ZM106.64,7.22a4.11,4.11,0,1,1-4.11,4.11,4.11,4.11,0,0,1,4.11-4.11Zm-27.84,0a4.11,4.11,0,1,1-4.11,4.11A4.11,4.11,0,0,1,78.8,7.22Zm13.92,0a4.11,4.11,0,1,1-4.11,4.11,4.11,4.11,0,0,1,4.11-4.11ZM66.87,84.74a3.51,3.51,0,0,1,0-7h39.65a3.51,3.51,0,0,1,0,7ZM15,84.74a3.52,3.52,0,0,1,0-7H51.72a3.52,3.52,0,0,1,0,7Z"/></svg>